<!DOCTYPE svg PUBLIC "-//W3C//DTD SVG 1.1//EN" "http://www.w3.org/Graphics/SVG/1.1/DTD/svg11.dtd">
<!-- Uploaded to: SVG Repo, www.svgrepo.com, Transformed by: SVG Repo Mixer Tools -->
<svg fill="#ffffff" width="800px" height="800px" viewBox="0 0 256 256" id="Flat" xmlns="http://www.w3.org/2000/svg" stroke="#ffffff">
<g id="SVGRepo_bgCarrier" stroke-width="0"/>
<g id="SVGRepo_tracerCarrier" stroke-linecap="round" stroke-linejoin="round"/>
<g id="SVGRepo_iconCarrier"> <path d="M232,56V92H136V48h88A8.00008,8.00008,0,0,1,232,56Zm-48,96h48V108H184Zm-96,0h80V108H88ZM72,108H24v44H72Zm64,100h88a8.00008,8.00008,0,0,0,8-8V168H136ZM120,48H32a8.00008,8.00008,0,0,0-8,8V92h96ZM24,200a8.00008,8.00008,0,0,0,8,8h88V168H24Z"/> </g>
</svg>